<?xml version="1.0" encoding="utf-8"?>
<svg viewBox="0 0 31.534 31.227" xmlns="http://www.w3.org/2000/svg">
  <path d="M 15.63 0.815 C 7.584 0.815 1.065 7.333 1.065 15.377 C 1.065 23.425 7.584 29.943 15.63 29.943 C 23.675 29.943 30.194 23.425 30.194 15.377 C 30.194 7.333 23.675 0.815 15.63 0.815 Z M 15.63 2.026 C 22.987 2.026 28.983 8.012 28.983 15.377 C 28.983 18.635 27.813 21.619 25.873 23.935 C 24.472 23.362 21.26 22.248 19.368 21.687 C 19.202 21.639 19.179 21.623 19.179 20.938 C 19.179 20.371 19.41 19.797 19.642 19.307 C 19.895 18.784 20.182 17.893 20.285 17.094 C 20.58 16.752 20.987 16.08 21.238 14.791 C 21.462 13.657 21.357 13.242 21.211 12.857 C 21.197 12.816 21.176 12.773 21.167 12.739 C 21.113 12.472 21.189 11.093 21.384 10.022 C 21.518 9.288 21.35 7.726 20.341 6.432 C 19.705 5.61 18.48 4.609 16.247 4.47 L 15.02 4.47 C 12.821 4.609 11.603 5.61 10.958 6.432 C 9.944 7.726 9.775 9.288 9.909 10.022 C 10.105 11.093 10.182 12.472 10.127 12.739 C 10.113 12.787 10.099 12.823 10.083 12.865 C 9.937 13.25 9.826 13.664 10.055 14.797 C 10.316 16.085 10.714 16.757 11.008 17.1 C 11.113 17.901 11.407 18.784 11.652 19.313 C 11.835 19.697 11.92 20.222 11.92 20.965 C 11.92 21.658 11.891 21.668 11.735 21.715 C 9.77 22.298 6.654 23.415 5.407 23.955 C 3.453 21.631 2.276 18.642 2.276 15.377 C 2.276 8.021 8.271 2.026 15.63 2.026 Z" style="fill: rgb(255, 255, 255);"/>
</svg>